<svg width="64" height="64" viewBox="0 0 64 64" fill="none" xmlns="http://www.w3.org/2000/svg" role="img" aria-label="Bidify mark">
  <rect width="64" height="64" rx="14" fill="#172235"/>
  <path d="M18 14H36.5C45.2 14 51 18.9 51 26.2C51 30.2 49.1 33.3 45.9 35.1C50 36.7 52.5 40.2 52.5 45C52.5 52.8 46.3 58 37.1 58H18V14Z" fill="url(#paint0_linear)"/>
  <path d="M18 50.5L45.5 22.9C47.5 25.5 47.8 29.2 45.8 32L23.8 58H18V50.5Z" fill="#F8C14A"/>
  <path d="M29.4 23.8H35.3C39 23.8 41.2 25.8 41.2 28.8C41.2 31.8 39 33.8 35.3 33.8H29.4V23.8ZM29.4 41.3H36.5C40.5 41.3 42.8 43.1 42.8 46.2C42.8 49.2 40.4 51.1 36.5 51.1H29.4V41.3Z" fill="#172235" fill-opacity="0.28"/>
  <defs>
    <linearGradient id="paint0_linear" x1="18" y1="14" x2="54.6" y2="54.4" gradientUnits="userSpaceOnUse">
      <stop stop-color="#8B5CF6"/>
      <stop offset="0.52" stop-color="#6D28D9"/>
      <stop offset="1" stop-color="#272783"/>
    </linearGradient>
  </defs>
</svg>
